<svg xmlns="http://www.w3.org/2000/svg" viewBox="0 0 960 540" role="img" aria-labelledby="title desc">
  <title id="title">Overflowing bins near Nizami Street</title>
  <desc id="desc">Illustration of overflowing public waste bins on a pedestrian street.</desc>
  <rect width="960" height="540" fill="#f8fafc"/>
  <rect y="320" width="960" height="220" fill="#e2e8f0"/>
  <path d="M0 322h960" stroke="#cbd5e1" stroke-width="8"/>
  <g opacity=".2" fill="#0f172a">
    <rect x="70" y="120" width="95" height="200" rx="6"/>
    <rect x="190" y="80" width="120" height="240" rx="6"/>
    <rect x="760" y="100" width="110" height="220" rx="6"/>
  </g>
  <text x="52" y="75" font-family="Inter, Arial, sans-serif" font-size="38" font-weight="900" fill="#003399">Nizami Street</text>
  <text x="52" y="116" font-family="Inter, Arial, sans-serif" font-size="24" fill="#475569">Waste management report</text>
  <g transform="translate(300 210)">
    <rect x="0" y="110" width="120" height="142" rx="14" fill="#0f766e"/>
    <rect x="-12" y="92" width="144" height="28" rx="10" fill="#115e59"/>
    <circle cx="25" cy="266" r="13" fill="#334155"/>
    <circle cx="95" cy="266" r="13" fill="#334155"/>
    <path d="M20 70c20-45 75-45 95 0l-18 28H38z" fill="#94a3b8"/>
    <path d="M6 92c22-28 48-32 79-8 17-20 44-21 70 7" stroke="#64748b" stroke-width="16" stroke-linecap="round" fill="none"/>
  </g>
  <g transform="translate(500 225)">
    <rect x="0" y="95" width="124" height="155" rx="14" fill="#2563eb"/>
    <rect x="-12" y="78" width="148" height="28" rx="10" fill="#1d4ed8"/>
    <circle cx="27" cy="265" r="13" fill="#334155"/>
    <circle cx="99" cy="265" r="13" fill="#334155"/>
    <path d="M18 45c31-35 85-25 105 20l-16 30H30z" fill="#cbd5e1"/>
    <path d="M-8 75c38-28 80-30 140 3" stroke="#94a3b8" stroke-width="15" stroke-linecap="round" fill="none"/>
  </g>
  <path d="M205 462c60-28 130-22 205 0M610 468c58-23 119-20 184 0" stroke="#94a3b8" stroke-width="15" stroke-linecap="round"/>
</svg>
